<svg width="47" height="46" viewBox="0 0 47 46" fill="none" xmlns="http://www.w3.org/2000/svg">
<path d="M16.8249 43.0892C17.479 42.8077 17.9372 42.1572 17.9372 41.4001V36.4321C17.9372 36.2508 17.9519 36.0623 17.9749 35.8709C17.962 35.8746 17.9501 35.8773 17.9372 35.8801C17.9372 35.8801 15.1772 35.8801 14.6252 35.8801C13.2452 35.8801 12.0492 35.3281 11.4972 34.2241C10.8532 33.0281 10.5772 31.0041 8.92118 29.9001C8.64518 29.7161 8.82918 29.4401 9.38118 29.4401C9.93318 29.5321 11.1292 30.2681 11.8652 31.2801C12.6932 32.2921 13.5212 33.1201 14.9932 33.1201C17.2812 33.1201 18.5076 33.0051 19.2454 32.6095C20.1047 31.3316 21.2943 30.3601 22.5372 30.3601V30.3371C17.3226 30.1696 13.9913 28.4364 12.4402 25.7601C9.06838 25.7987 6.13266 26.1327 4.45734 26.4105C4.40398 26.1097 4.35798 25.807 4.31842 25.5025C5.97166 25.2302 8.77398 24.9072 11.9958 24.8456C11.8928 24.5917 11.8035 24.3313 11.7281 24.0645C8.49798 23.9008 5.71038 24.0286 4.19606 24.1538C4.17766 23.8483 4.15282 23.5438 4.14914 23.2347C5.66622 23.1105 8.37838 22.9863 11.5257 23.1326C11.453 22.6726 11.4061 22.2024 11.4061 21.713C11.4061 20.149 11.9581 18.493 12.9701 17.113C12.5101 15.549 11.8661 12.237 13.1541 11.041C15.6381 11.041 17.3861 12.237 18.2141 12.973C19.7772 12.3281 21.5252 11.9601 23.4572 11.9601C25.3892 11.9601 27.1372 12.3281 28.6092 12.9721C29.4372 12.2361 31.1852 11.0401 33.6692 11.0401C35.0492 12.3281 34.3132 15.6401 33.8532 17.1121C34.8652 18.4921 35.4172 20.0561 35.3252 21.7121C35.3252 22.1574 35.2838 22.587 35.224 23.0084C38.4431 22.8501 41.2288 22.9771 42.7717 23.1022C42.7698 23.4122 42.7413 23.7149 42.7247 24.0213C41.1874 23.8943 38.3317 23.7637 35.0345 23.9394C34.9526 24.2485 34.8532 24.5494 34.7355 24.841C37.9978 24.8833 40.8673 25.1989 42.5996 25.4749C42.5601 25.7803 42.5141 26.083 42.4607 26.3829C40.7017 26.1014 37.7034 25.772 34.292 25.7555C32.7602 28.4032 29.4896 30.1301 24.3772 30.3316V30.3601C26.7692 30.3601 28.9772 33.9481 28.9772 36.4321V41.4001C28.9772 42.1572 29.4353 42.8077 30.0895 43.0892C38.5176 40.2998 44.6172 32.351 44.6172 23.0001C44.6172 11.3326 35.1255 1.84009 23.4572 1.84009C11.7888 1.84009 2.29718 11.3326 2.29718 23.0001C2.29718 32.351 8.39678 40.2998 16.8249 43.0892Z" fill="#5AC7F8"/>
</svg>
