<svg width="40" height="40" viewBox="0 0 40 40" fill="none" xmlns="http://www.w3.org/2000/svg">
<path d="M34.9484 0.679932H5.50845C2.96925 0.679932 0.908447 2.74073 0.908447 5.27993V34.7199C0.908447 37.2591 2.96925 39.3199 5.50845 39.3199H34.9484C37.4876 39.3199 39.5484 37.2591 39.5484 34.7199V5.27993C39.5484 2.74073 37.4876 0.679932 34.9484 0.679932ZM12.8684 15.3999V32.8799H7.34845V15.3999H12.8684ZM7.34845 10.3123C7.34845 9.02433 8.45245 8.03993 10.1084 8.03993C11.7644 8.03993 12.804 9.02433 12.8684 10.3123C12.8684 11.6003 11.838 12.6399 10.1084 12.6399C8.45245 12.6399 7.34845 11.6003 7.34845 10.3123ZM33.1084 32.8799H27.5884C27.5884 32.8799 27.5884 24.3607 27.5884 23.6799C27.5884 21.8399 26.6684 19.9999 24.3684 19.9631H24.2948C22.0684 19.9631 21.1484 21.8583 21.1484 23.6799C21.1484 24.5171 21.1484 32.8799 21.1484 32.8799H15.6284V15.3999H21.1484V17.7551C21.1484 17.7551 22.924 15.3999 26.4936 15.3999C30.146 15.3999 33.1084 17.9115 33.1084 22.9991V32.8799Z" fill="#5AC7F8"/>
</svg>
