<svg width="97" height="97" viewBox="0 0 97 97" fill="none" xmlns="http://www.w3.org/2000/svg">
<path d="M41.516 14.9744C41.938 15.6495 42.2228 16.4011 42.3543 17.1864C42.4858 17.9716 42.4613 18.775 42.2823 19.5507C42.1032 20.3265 41.7732 21.0594 41.3109 21.7076C40.8487 22.3558 40.2633 22.9066 39.5881 23.3285C32.2094 27.9245 26.3477 34.5917 22.7344 42.4981C26.3833 42.193 30.0394 42.9964 33.2243 44.8032C36.4091 46.6099 38.9745 49.336 40.5847 52.6246C42.1948 55.9133 42.7749 59.6114 42.2489 63.2351C41.7229 66.8588 40.1153 70.2393 37.6365 72.9344C35.1578 75.6295 31.9232 77.5136 28.3561 78.3403C24.7889 79.167 21.0553 78.8977 17.6437 77.5677C14.2322 76.2376 11.3015 73.9088 9.23514 70.8859C7.1688 67.8629 6.06303 64.2867 6.0625 60.625V60.4613C6.06909 59.992 6.08931 59.523 6.12312 59.0548C6.17769 58.1455 6.28681 56.8723 6.499 55.3082C6.92338 52.1981 7.75394 47.912 9.43325 43.0983C12.7797 33.459 19.5576 21.5461 33.1619 13.0465C33.837 12.6246 34.5886 12.3397 35.3738 12.2082C36.159 12.0768 36.9625 12.1012 37.7382 12.2803C38.514 12.4593 39.2469 12.7893 39.8951 13.2516C40.5433 13.7139 41.094 14.2993 41.516 14.9744ZM83.9535 14.9744C84.3755 15.6495 84.6603 16.4011 84.7918 17.1864C84.9233 17.9716 84.8988 18.775 84.7198 19.5507C84.5407 20.3265 84.2107 21.0594 83.7484 21.7076C83.2862 22.3558 82.7008 22.9066 82.0256 23.3285C74.6469 27.9245 68.7852 34.5917 65.1719 42.4981C68.8208 42.193 72.4769 42.9964 75.6618 44.8032C78.8466 46.6099 81.412 49.336 83.0222 52.6246C84.6323 55.9133 85.2124 59.6114 84.6864 63.2351C84.1604 66.8588 82.5528 70.2393 80.074 72.9344C77.5953 75.6295 74.3607 77.5136 70.7936 78.3403C67.2264 79.167 63.4928 78.8977 60.0812 77.5677C56.6697 76.2376 53.739 73.9088 51.6726 70.8859C49.6063 67.8629 48.5005 64.2867 48.5 60.625V60.4613C48.5066 59.992 48.5268 59.523 48.5606 59.0548C48.6152 58.1455 48.7243 56.8723 48.9365 55.3082C49.3609 52.1981 50.1914 47.912 51.8708 43.0983C55.2172 33.459 61.9951 21.5461 75.5994 13.0465C76.2745 12.6246 77.0261 12.3397 77.8113 12.2082C78.5965 12.0768 79.4 12.1012 80.1757 12.2803C80.9515 12.4593 81.6844 12.7893 82.3326 13.2516C82.9808 13.7139 83.5315 14.2993 83.9535 14.9744Z" fill="#414040" fill-opacity="0.55"/>
</svg>
