<svg width="40" height="40" viewBox="0 0 40 40" fill="none" xmlns="http://www.w3.org/2000/svg">
<path d="M7.11999 0.679932C3.56327 0.679932 0.679993 3.56321 0.679993 7.11993V32.8799C0.679993 36.4366 3.56327 39.3199 7.11999 39.3199H32.88C36.4367 39.3199 39.32 36.4366 39.32 32.8799V7.11993C39.32 3.56321 36.4367 0.679932 32.88 0.679932H7.11999ZM9.03906 8.95993H16.3416L21.5273 16.3289L27.82 8.95993H30.12L22.5659 17.8041L31.8809 31.0399H24.5802L18.5625 22.4904L11.26 31.0399H8.95999L17.5239 21.0152L9.03906 8.95993ZM12.5609 10.7999L25.5398 29.1999H28.3591L15.3802 10.7999H12.5609Z" fill="#5AC7F8"/>
</svg>
